HIERARCHY
ROOT Hips
{
	OFFSET -0.001795 -0.223333 0.028219
	CHANNELS 6 Xposition Yposition Zposition Zrotation Yrotation Xrotation 
	JOINT LeftUpLeg
	{
		OFFSET 0.069520 -0.091406 -0.006815
		CHANNELS 3 Zrotation Yrotation Xrotation
		JOINT LeftLeg
		{
			OFFSET 0.034277 -0.375199 -0.004496
			CHANNELS 3 Zrotation Yrotation Xrotation
			JOINT LeftFoot
			{
				OFFSET -0.013596 -0.397961 -0.043693
				CHANNELS 3 Zrotation Yrotation Xrotation
				JOINT LeftToe
				{
					OFFSET 0.026358 -0.055791 0.119288
					CHANNELS 3 Zrotation Yrotation Xrotation
					End Site
					{
						OFFSET 0.000000 0.000000 0.000000
					}
				}
			}
		}
	}
	JOINT RightUpLeg
	{
		OFFSET -0.067670 -0.090522 -0.004320
		CHANNELS 3 Zrotation Yrotation Xrotation
		JOINT RightLeg
		{
			OFFSET -0.038290 -0.382569 -0.008850
			CHANNELS 3 Zrotation Yrotation Xrotation
			JOINT RightFoot
			{
				OFFSET 0.015774 -0.398415 -0.042312
				CHANNELS 3 Zrotation Yrotation Xrotation
				JOINT RightToe
				{
					OFFSET -0.025372 -0.048144 0.123348
					CHANNELS 3 Zrotation Yrotation Xrotation
					End Site
					{
						OFFSET 0.000000 0.000000 0.000000
					}
				}
			}
		}
	}
	JOINT Spine
	{
		OFFSET -0.002533 0.108963 -0.026696
		CHANNELS 3 Zrotation Yrotation Xrotation
		JOINT Spine1
		{
			OFFSET 0.005487 0.135180 0.001092
			CHANNELS 3 Zrotation Yrotation Xrotation
			JOINT Spine2
			{
				OFFSET 0.001457 0.052922 0.025425
				CHANNELS 3 Zrotation Yrotation Xrotation
				JOINT Neck
				{
					OFFSET -0.002778 0.213870 -0.042857
					CHANNELS 3 Zrotation Yrotation Xrotation
					JOINT Head
					{
						OFFSET 0.005152 0.064970 0.051349
						CHANNELS 3 Zrotation Yrotation Xrotation
						End Site
						{
							OFFSET 0.000000 0.000000 0.000000
						}
					}
				}
				JOINT LeftShoulder
				{
					OFFSET 0.078845 0.121749 -0.034090
					CHANNELS 3 Zrotation Yrotation Xrotation
					JOINT LeftArm
					{
						OFFSET 0.090977 0.030469 -0.008868
						CHANNELS 3 Zrotation Yrotation Xrotation
						JOINT LeftForeArm
						{
							OFFSET 0.259612 -0.012772 -0.027456
							CHANNELS 3 Zrotation Yrotation Xrotation
							JOINT LeftHand
							{
								OFFSET 0.249234 0.008986 -0.001171
								CHANNELS 3 Zrotation Yrotation Xrotation
								End Site
								{
									OFFSET 0.000000 0.000000 0.000000
								}
							}
						}
					}
				}
				JOINT RightShoulder
				{
					OFFSET -0.081759 0.118833 -0.038615
					CHANNELS 3 Zrotation Yrotation Xrotation
					JOINT RightArm
					{
						OFFSET -0.096012 0.032551 -0.009143
						CHANNELS 3 Zrotation Yrotation Xrotation
						JOINT RightForeArm
						{
							OFFSET -0.253742 -0.013329 -0.021401
							CHANNELS 3 Zrotation Yrotation Xrotation
							JOINT RightHand
							{
								OFFSET -0.255298 0.007772 -0.005559
								CHANNELS 3 Zrotation Yrotation Xrotation
								End Site
								{
									OFFSET 0.000000 0.000000 0.000000
								}
							}
						}
					}
				}
			}
		}
	}
}
MOTION
Frames: 11
Frame Time: 0.050000
0.000000 0.903777 0.000000 -0.704816 2.713892 5.224007 8.289280 -0.861326 -25.624026 -11.661524 3.207059 31.279443 11.562175 23.364695 2.953564 0.000000 0.000000 0.000000 -8.937235 0.704504 -32.880381 7.165175 -2.008012 33.629453 -5.407881 -14.062197 4.139062 0.000000 0.000000 0.000000 6.349824 -2.756136 24.628022 -4.496250 1.753247 -21.292502 -2.215598 4.173420 26.551474 12.110461 -4.108968 -28.738567 0.000000 0.000000 0.000000 -3.668292 -26.762582 9.514137 -25.734542 -47.436101 4.005164 45.060894 -47.431191 -18.678179 0.000000 0.000000 0.000000 15.715663 12.761564 7.022324 30.030461 44.413049 5.288218 -62.735766 56.325553 -29.731147 0.000000 0.000000 0.000000 
-0.000208 0.900980 -0.000384 -1.116144 1.768591 6.273381 9.555617 -0.576114 -26.854346 -13.286976 4.099352 32.369332 11.963472 24.118797 3.005152 0.000000 0.000000 0.000000 -9.487968 0.705977 -34.884028 8.466898 -2.497188 34.707779 -4.655981 -12.632627 5.030732 0.000000 0.000000 0.000000 5.088772 -2.302377 23.548986 -2.457859 1.204767 -22.052537 -2.301310 6.333592 27.429995 13.021116 -4.256992 -29.449509 0.000000 0.000000 0.000000 -4.535429 -26.818357 9.542148 -22.974636 -49.183978 3.113260 44.974205 -46.751261 -18.559740 0.000000 0.000000 0.000000 17.100406 11.560830 7.002092 26.430541 44.696908 4.073866 -66.054924 56.664522 -31.786905 0.000000 0.000000 0.000000 
-0.000247 0.898813 -0.000255 -1.227199 2.449515 5.479159 9.359849 -0.654878 -26.598180 -13.431202 4.085007 32.917552 13.428776 26.654587 3.115599 0.000000 0.000000 0.000000 -9.283198 0.655641 -34.153986 8.411576 -2.614644 35.434840 -4.736507 -12.645599 4.399031 0.000000 0.000000 0.000000 6.007300 -2.472844 22.871011 -2.588291 1.254412 -21.207293 -3.157318 5.512058 27.485944 13.132894 -4.659446 -28.158373 0.000000 0.000000 0.000000 -4.804142 -27.445954 9.837994 -20.853700 -49.794917 2.534160 44.703811 -43.634691 -17.081097 0.000000 0.000000 0.000000 16.746467 11.619447 6.878724 23.711651 45.865505 3.470064 -65.571726 54.716448 -30.470234 0.000000 0.000000 0.000000 
-0.000341 0.896899 0.000629 -1.558418 2.051383 5.065551 9.568959 -0.580090 -27.179480 -13.497315 4.342832 34.806993 14.202706 27.849883 3.903171 0.000000 0.000000 0.000000 -9.162645 0.741182 -35.361241 8.579870 -2.761531 37.723157 -4.299080 -11.742579 4.625320 0.000000 0.000000 0.000000 6.302403 -2.536553 23.082117 -2.879821 1.324710 -20.878719 -3.693156 5.865223 27.294895 13.777706 -4.779680 -29.166353 0.000000 0.000000 0.000000 -2.969124 -27.473913 9.523620 -19.364760 -49.995933 2.006191 44.489087 -41.734177 -16.302707 0.000000 0.000000 0.000000 15.896628 10.226046 6.017431 23.567674 46.653921 3.670402 -67.914359 53.826992 -31.235688 0.000000 0.000000 0.000000 
-0.000355 0.895302 0.002268 -1.682896 1.873662 4.423200 9.550184 -0.552115 -26.800836 -13.047577 4.224553 35.455585 13.951092 27.520610 2.970543 0.000000 0.000000 0.000000 -8.872866 0.833662 -34.807104 8.625139 -2.759751 37.866771 -4.408105 -12.002656 4.741616 0.000000 0.000000 0.000000 6.046138 -2.490618 23.408884 -2.858428 1.317725 -21.298718 -3.541321 5.799616 27.802618 13.570843 -4.658710 -29.410981 0.000000 0.000000 0.000000 -3.391160 -27.697302 9.668970 -17.939184 -49.353555 1.453535 44.791141 -41.168070 -16.236029 0.000000 0.000000 0.000000 15.440175 10.371663 5.976167 21.203942 46.162824 2.810062 -66.478240 51.721650 -29.260676 0.000000 0.000000 0.000000 
-0.000327 0.895414 0.004018 -1.780688 1.356302 4.390169 9.495351 -0.517560 -26.658484 -13.254960 4.418271 35.598780 14.041084 27.608076 3.392432 0.000000 0.000000 0.000000 -8.552165 0.996325 -35.073654 8.438248 -2.619123 38.485298 -4.275393 -11.640216 4.174474 0.000000 0.000000 0.000000 6.096788 -2.453186 23.217343 -3.052257 1.359059 -21.298880 -3.763019 6.053029 27.622740 14.334406 -5.005783 -29.843540 0.000000 0.000000 0.000000 -3.433139 -27.910788 9.753408 -16.310262 -48.059765 0.824885 44.431086 -41.055464 -16.122296 0.000000 0.000000 0.000000 15.194308 10.476328 5.979050 18.247738 45.736208 1.823115 -65.101749 49.874921 -27.530419 0.000000 0.000000 0.000000 
-0.000236 0.895355 0.005544 -1.671115 1.221428 4.001268 9.270589 -0.543547 -26.390001 -13.079717 4.383663 35.862458 13.890023 27.328805 3.398945 0.000000 0.000000 0.000000 -8.398153 1.041949 -34.608889 8.370932 -2.573528 38.699613 -4.341460 -11.716876 3.799632 0.000000 0.000000 0.000000 5.824704 -2.377762 23.249835 -3.043178 1.351770 -21.848123 -4.025467 5.993783 27.887027 14.628816 -5.197470 -29.945086 0.000000 0.000000 0.000000 -3.318909 -27.799026 9.692668 -15.234300 -46.855472 0.403713 44.306447 -40.528794 -15.915687 0.000000 0.000000 0.000000 15.073985 10.715270 6.060217 14.505367 45.288686 0.598122 -62.569763 47.078605 -24.762987 0.000000 0.000000 0.000000 
-0.000162 0.896107 0.006617 -1.626468 0.814986 3.990849 9.304372 -0.505847 -26.551017 -13.274220 4.588506 36.331584 13.392992 26.437010 3.689632 0.000000 0.000000 0.000000 -7.952731 1.217552 -34.571366 7.849156 -2.256897 38.797724 -4.453419 -11.902835 3.332067 0.000000 0.000000 0.000000 5.757619 -2.301157 22.871995 -3.290716 1.409860 -21.738616 -4.235572 6.018133 27.516441 15.043937 -5.491034 -29.757773 0.000000 0.000000 0.000000 -2.977404 -27.334605 9.487270 -14.121482 -45.202703 0.012746 44.142998 -40.420558 -15.868782 0.000000 0.000000 0.000000 14.317529 10.567421 5.833171 11.181478 44.671416 -0.399925 -59.876831 44.388208 -22.119407 0.000000 0.000000 0.000000 
-0.000098 0.896321 0.007418 -1.741087 0.327157 3.906444 9.526910 -0.416801 -26.693083 -13.460782 4.824808 36.928812 13.060228 25.836170 3.838014 0.000000 0.000000 0.000000 -7.386007 1.438181 -34.619634 7.500975 -2.008042 38.893386 -4.328188 -11.664267 3.423538 0.000000 0.000000 0.000000 5.702344 -2.267112 22.918179 -3.257213 1.391190 -21.768164 -4.376681 6.142243 27.486324 15.159241 -5.606921 -29.621316 0.000000 0.000000 0.000000 -2.318625 -27.019921 9.278353 -13.451179 -43.456242 -0.237667 44.314858 -40.210122 -15.923165 0.000000 0.000000 0.000000 13.277044 10.630812 5.688797 7.079952 44.023134 -1.571843 -57.969721 41.339503 -19.831062 0.000000 0.000000 0.000000 
-0.000053 0.896070 0.008338 -1.786860 -0.227868 3.912559 9.749523 -0.321622 -26.814947 -13.832252 5.163540 37.471171 12.905562 25.488303 4.484412 0.000000 0.000000 0.000000 -6.992226 1.619768 -34.718017 7.339851 -1.841724 39.041353 -4.343837 -11.700476 3.279102 0.000000 0.000000 0.000000 5.747797 -2.229799 22.711401 -3.526085 1.445351 -21.994194 -4.357323 6.236634 27.635506 15.343663 -5.645454 -30.089656 0.000000 0.000000 0.000000 -1.984848 -26.513586 9.065669 -13.824655 -42.414169 -0.172533 44.223449 -40.885902 -16.171891 0.000000 0.000000 0.000000 12.160370 10.659656 5.516379 3.470656 43.421883 -2.558429 -55.696857 39.091243 -17.935895 0.000000 0.000000 0.000000 
0.000006 0.895544 0.009649 -1.770624 -0.503475 3.603354 9.822049 -0.277267 -26.752079 -14.005166 5.359447 38.050302 12.939911 25.530704 4.479451 0.000000 0.000000 0.000000 -6.924231 1.657156 -34.472133 7.312648 -1.786594 39.261490 -4.229945 -11.430011 3.185689 0.000000 0.000000 0.000000 5.900762 -2.247287 22.749166 -4.024059 1.565939 -22.190616 -4.243806 6.294527 27.751498 15.470913 -5.831094 -29.683034 0.000000 0.000000 0.000000 -2.033575 -26.273991 8.992024 -14.434634 -41.504264 -0.046773 44.202010 -42.790736 -16.976820 0.000000 0.000000 0.000000 10.690930 10.302710 5.135716 0.809868 42.715261 -3.203658 -54.136841 37.693357 -16.776587 0.000000 0.000000 0.000000 
